<svg xmlns="http://www.w3.org/2000/svg" xmlns:xlink="http://www.w3.org/1999/xlink" viewBox="0 0 64 64" width="64px" height="64px"><defs><path id="e0eWcaMCfzLq5GXIbwS29a" d="M47.02,41c0,7.46-5.83,13.5-13.02,13.5 S20.98,48.46,20.98,41c0-3.09,1-5.93,2.68-8.2c2.93-3.98,4.65-8.71,4.66-13.65c0-1.61,0.02-2.67,0.06-2.77h2.12V10H29 c0,0,0-0.22,0.05-0.57c0-0.05,0.01-0.09,0.02-0.14c0.04-0.29,0.12-0.64,0.24-1.02c0.02-0.06,0.05-0.13,0.07-0.19 c0.01-0.04,0.03-0.07,0.04-0.11c0.07-0.19,0.16-0.38,0.26-0.58c0.02-0.04,0.04-0.08,0.07-0.12c0.21-0.39,0.5-0.77,0.87-1.11 c0.11-0.1,0.24-0.2,0.37-0.29c0.17-0.13,0.36-0.24,0.56-0.34c0.14-0.08,0.29-0.14,0.45-0.2V3h4v2.33 c0.16,0.06,0.31,0.12,0.45,0.2c0.21,0.1,0.4,0.22,0.57,0.34c0.13,0.09,0.25,0.19,0.36,0.29c0.37,0.34,0.66,0.72,0.87,1.11 c0.03,0.04,0.05,0.08,0.07,0.12c0.1,0.2,0.19,0.39,0.26,0.58c0.01,0.04,0.03,0.07,0.04,0.11c0.02,0.06,0.05,0.13,0.07,0.19 c0.12,0.38,0.2,0.73,0.24,1.02c0.01,0.05,0.02,0.09,0.02,0.14C39,9.78,39,10,39,10h-1.5v6.38h2.38v3.02 c0,4.85,1.63,9.53,4.5,13.45C46.04,35.11,47.02,37.93,47.02,41z"/></defs><clipPath id="e0eWcaMCfzLq5GXIbwS29b"><use overflow="visible" xlink:href="#e0eWcaMCfzLq5GXIbwS29a"/></clipPath><rect width="26.04" height=".131" x="20.98" y="3" fill="#86c1ff" clip-path="url(#e0eWcaMCfzLq5GXIbwS29b)"/><rect width="26.04" height=".473" x="20.98" y="3.131" fill="#87c1ff" clip-path="url(#e0eWcaMCfzLq5GXIbwS29b)"/><rect width="26.04" height=".473" x="20.98" y="3.604" fill="#88c1ff" clip-path="url(#e0eWcaMCfzLq5GXIbwS29b)"/><rect width="26.04" height=".473" x="20.98" y="4.077" fill="#89c0ff" clip-path="url(#e0eWcaMCfzLq5GXIbwS29b)"/><rect width="26.04" height=".473" x="20.98" y="4.549" fill="#8ac0ff" clip-path="url(#e0eWcaMCfzLq5GXIbwS29b)"/><rect width="26.04" height=".473" x="20.98" y="5.022" fill="#8bc0ff" clip-path="url(#e0eWcaMCfzLq5GXIbwS29b)"/><rect width="26.04" height=".473" x="20.98" y="5.495" fill="#8cc0ff" clip-path="url(#e0eWcaMCfzLq5GXIbwS29b)"/><rect width="26.04" height=".473" x="20.98" y="5.968" fill="#8dbfff" clip-path="url(#e0eWcaMCfzLq5GXIbwS29b)"/><rect width="26.04" height=".473" x="20.98" y="6.441" fill="#8fbfff" clip-path="url(#e0eWcaMCfzLq5GXIbwS29b)"/><rect width="26.04" height=".473" x="20.98" y="6.914" fill="#90bfff" clip-path="url(#e0eWcaMCfzLq5GXIbwS29b)"/><rect width="26.04" height=".473" x="20.98" y="7.387" fill="#91bfff" clip-path="url(#e0eWcaMCfzLq5GXIbwS29b)"/><rect width="26.04" height=".473" x="20.98" y="7.86" fill="#92bfff" clip-path="url(#e0eWcaMCfzLq5GXIbwS29b)"/><rect width="26.04" height=".473" x="20.98" y="8.332" fill="#93beff" clip-path="url(#e0eWcaMCfzLq5GXIbwS29b)"/><rect width="26.04" height=".473" x="20.98" y="8.805" fill="#94beff" clip-path="url(#e0eWcaMCfzLq5GXIbwS29b)"/><rect width="26.04" height=".473" x="20.98" y="9.278" fill="#95beff" clip-path="url(#e0eWcaMCfzLq5GXIbwS29b)"/><rect width="26.04" height=".473" x="20.98" y="9.751" fill="#96beff" clip-path="url(#e0eWcaMCfzLq5GXIbwS29b)"/><rect width="26.04" height=".473" x="20.98" y="10.224" fill="#97bdff" clip-path="url(#e0eWcaMCfzLq5GXIbwS29b)"/><rect width="26.04" height=".473" x="20.98" y="10.697" fill="#98bdff" clip-path="url(#e0eWcaMCfzLq5GXIbwS29b)"/><rect width="26.04" height=".473" x="20.98" y="11.17" fill="#99bdff" clip-path="url(#e0eWcaMCfzLq5GXIbwS29b)"/><rect width="26.04" height=".473" x="20.98" y="11.642" fill="#9abdff" clip-path="url(#e0eWcaMCfzLq5GXIbwS29b)"/><rect width="26.04" height=".473" x="20.98" y="12.115" fill="#9bbcff" clip-path="url(#e0eWcaMCfzLq5GXIbwS29b)"/><rect width="26.04" height=".473" x="20.98" y="12.588" fill="#9cbcff" clip-path="url(#e0eWcaMCfzLq5GXIbwS29b)"/><rect width="26.04" height=".473" x="20.98" y="13.061" fill="#9dbcff" clip-path="url(#e0eWcaMCfzLq5GXIbwS29b)"/><rect width="26.04" height=".473" x="20.98" y="13.534" fill="#9ebcff" clip-path="url(#e0eWcaMCfzLq5GXIbwS29b)"/><rect width="26.04" height=".473" x="20.98" y="14.007" fill="#9fbbff" clip-path="url(#e0eWcaMCfzLq5GXIbwS29b)"/><rect width="26.04" height=".473" x="20.98" y="14.48" fill="#a0bbff" clip-path="url(#e0eWcaMCfzLq5GXIbwS29b)"/><rect width="26.04" height=".473" x="20.98" y="14.953" fill="#a1bbff" clip-path="url(#e0eWcaMCfzLq5GXIbwS29b)"/><rect width="26.04" height=".473" x="20.98" y="15.425" fill="#a2bbff" clip-path="url(#e0eWcaMCfzLq5GXIbwS29b)"/><rect width="26.04" height=".473" x="20.98" y="15.898" fill="#a3baff" clip-path="url(#e0eWcaMCfzLq5GXIbwS29b)"/><rect width="26.04" height=".473" x="20.98" y="16.371" fill="#a4baff" clip-path="url(#e0eWcaMCfzLq5GXIbwS29b)"/><rect width="26.04" height=".473" x="20.98" y="16.844" fill="#a5baff" clip-path="url(#e0eWcaMCfzLq5GXIbwS29b)"/><rect width="26.04" height=".473" x="20.98" y="17.317" fill="#a6baff" clip-path="url(#e0eWcaMCfzLq5GXIbwS29b)"/><rect width="26.04" height=".473" x="20.98" y="17.79" fill="#a7baff" clip-path="url(#e0eWcaMCfzLq5GXIbwS29b)"/><rect width="26.04" height=".473" x="20.98" y="18.263" fill="#a8b9ff" clip-path="url(#e0eWcaMCfzLq5GXIbwS29b)"/><rect width="26.04" height=".473" x="20.98" y="18.736" fill="#a9b9ff" clip-path="url(#e0eWcaMCfzLq5GXIbwS29b)"/><rect width="26.04" height=".473" x="20.98" y="19.208" fill="#aab9ff" clip-path="url(#e0eWcaMCfzLq5GXIbwS29b)"/><rect width="26.04" height=".473" x="20.98" y="19.681" fill="#abb9ff" clip-path="url(#e0eWcaMCfzLq5GXIbwS29b)"/><rect width="26.04" height=".473" x="20.98" y="20.154" fill="#acb8ff" clip-path="url(#e0eWcaMCfzLq5GXIbwS29b)"/><rect width="26.04" height=".473" x="20.98" y="20.627" fill="#adb8ff" clip-path="url(#e0eWcaMCfzLq5GXIbwS29b)"/><rect width="26.04" height=".473" x="20.98" y="21.1" fill="#aeb8ff" clip-path="url(#e0eWcaMCfzLq5GXIbwS29b)"/><rect width="26.04" height=".473" x="20.98" y="21.573" fill="#afb8ff" clip-path="url(#e0eWcaMCfzLq5GXIbwS29b)"/><rect width="26.04" height=".473" x="20.98" y="22.046" fill="#b1b7ff" clip-path="url(#e0eWcaMCfzLq5GXIbwS29b)"/><rect width="26.04" height=".473" x="20.98" y="22.518" fill="#b2b7ff" clip-path="url(#e0eWcaMCfzLq5GXIbwS29b)"/><rect width="26.04" height=".473" x="20.98" y="22.991" fill="#b3b7ff" clip-path="url(#e0eWcaMCfzLq5GXIbwS29b)"/><rect width="26.04" height=".473" x="20.98" y="23.464" fill="#b4b7ff" clip-path="url(#e0eWcaMCfzLq5GXIbwS29b)"/><rect width="26.04" height=".473" x="20.98" y="23.937" fill="#b5b6ff" clip-path="url(#e0eWcaMCfzLq5GXIbwS29b)"/><rect width="26.04" height=".473" x="20.98" y="24.41" fill="#b6b6ff" clip-path="url(#e0eWcaMCfzLq5GXIbwS29b)"/><rect width="26.04" height=".473" x="20.98" y="24.883" fill="#b7b6ff" clip-path="url(#e0eWcaMCfzLq5GXIbwS29b)"/><rect width="26.04" height=".473" x="20.98" y="25.356" fill="#b8b6ff" clip-path="url(#e0eWcaMCfzLq5GXIbwS29b)"/><rect width="26.04" height=".473" x="20.98" y="25.829" fill="#b9b5ff" clip-path="url(#e0eWcaMCfzLq5GXIbwS29b)"/><rect width="26.04" height=".473" x="20.98" y="26.301" fill="#bab5ff" clip-path="url(#e0eWcaMCfzLq5GXIbwS29b)"/><rect width="26.04" height=".473" x="20.98" y="26.774" fill="#bbb5ff" clip-path="url(#e0eWcaMCfzLq5GXIbwS29b)"/><rect width="26.04" height=".473" x="20.98" y="27.247" fill="#bcb5ff" clip-path="url(#e0eWcaMCfzLq5GXIbwS29b)"/><rect width="26.04" height=".473" x="20.98" y="27.72" fill="#bdb5ff" clip-path="url(#e0eWcaMCfzLq5GXIbwS29b)"/><rect width="26.04" height=".473" x="20.98" y="28.193" fill="#beb4ff" clip-path="url(#e0eWcaMCfzLq5GXIbwS29b)"/><rect width="26.04" height=".473" x="20.98" y="28.666" fill="#bfb4ff" clip-path="url(#e0eWcaMCfzLq5GXIbwS29b)"/><rect width="26.04" height=".473" x="20.98" y="29.139" fill="#c0b4ff" clip-path="url(#e0eWcaMCfzLq5GXIbwS29b)"/><rect width="26.04" height=".473" x="20.98" y="29.612" fill="#c1b4ff" clip-path="url(#e0eWcaMCfzLq5GXIbwS29b)"/><rect width="26.04" height=".473" x="20.98" y="30.084" fill="#c2b3ff" clip-path="url(#e0eWcaMCfzLq5GXIbwS29b)"/><rect width="26.04" height=".473" x="20.98" y="30.557" fill="#c3b3ff" clip-path="url(#e0eWcaMCfzLq5GXIbwS29b)"/><rect width="26.04" height=".473" x="20.98" y="31.03" fill="#c4b3ff" clip-path="url(#e0eWcaMCfzLq5GXIbwS29b)"/><rect width="26.04" height=".473" x="20.98" y="31.503" fill="#c5b3ff" clip-path="url(#e0eWcaMCfzLq5GXIbwS29b)"/><rect width="26.04" height=".473" x="20.98" y="31.976" fill="#c6b2ff" clip-path="url(#e0eWcaMCfzLq5GXIbwS29b)"/><rect width="26.04" height=".473" x="20.98" y="32.449" fill="#c7b2ff" clip-path="url(#e0eWcaMCfzLq5GXIbwS29b)"/><rect width="26.04" height=".473" x="20.98" y="32.922" fill="#c8b2ff" clip-path="url(#e0eWcaMCfzLq5GXIbwS29b)"/><rect width="26.04" height=".473" x="20.98" y="33.394" fill="#c9b2ff" clip-path="url(#e0eWcaMCfzLq5GXIbwS29b)"/><rect width="26.04" height=".473" x="20.98" y="33.867" fill="#cab2ff" clip-path="url(#e0eWcaMCfzLq5GXIbwS29b)"/><rect width="26.04" height=".473" x="20.98" y="34.34" fill="#cbb1ff" clip-path="url(#e0eWcaMCfzLq5GXIbwS29b)"/><rect width="26.04" height=".473" x="20.98" y="34.813" fill="#ccb1ff" clip-path="url(#e0eWcaMCfzLq5GXIbwS29b)"/><rect width="26.04" height=".473" x="20.98" y="35.286" fill="#cdb1ff" clip-path="url(#e0eWcaMCfzLq5GXIbwS29b)"/><rect width="26.04" height=".473" x="20.98" y="35.759" fill="#ceb1ff" clip-path="url(#e0eWcaMCfzLq5GXIbwS29b)"/><rect width="26.04" height=".473" x="20.98" y="36.232" fill="#cfb0ff" clip-path="url(#e0eWcaMCfzLq5GXIbwS29b)"/><rect width="26.04" height=".473" x="20.98" y="36.705" fill="#d0b0ff" clip-path="url(#e0eWcaMCfzLq5GXIbwS29b)"/><rect width="26.04" height=".473" x="20.98" y="37.177" fill="#d1b0ff" clip-path="url(#e0eWcaMCfzLq5GXIbwS29b)"/><rect width="26.04" height=".473" x="20.98" y="37.65" fill="#d1b0ff" clip-path="url(#e0eWcaMCfzLq5GXIbwS29b)"/><rect width="26.04" height=".473" x="20.98" y="38.123" fill="#d2b0ff" clip-path="url(#e0eWcaMCfzLq5GXIbwS29b)"/><rect width="26.04" height=".473" x="20.98" y="38.596" fill="#d3afff" clip-path="url(#e0eWcaMCfzLq5GXIbwS29b)"/><rect width="26.04" height=".473" x="20.98" y="39.069" fill="#d4afff" clip-path="url(#e0eWcaMCfzLq5GXIbwS29b)"/><rect width="26.04" height=".473" x="20.98" y="39.542" fill="#d5afff" clip-path="url(#e0eWcaMCfzLq5GXIbwS29b)"/><rect width="26.04" height=".473" x="20.98" y="40.015" fill="#d6afff" clip-path="url(#e0eWcaMCfzLq5GXIbwS29b)"/><rect width="26.04" height=".473" x="20.98" y="40.487" fill="#d7aeff" clip-path="url(#e0eWcaMCfzLq5GXIbwS29b)"/><rect width="26.04" height=".473" x="20.98" y="40.96" fill="#d8aeff" clip-path="url(#e0eWcaMCfzLq5GXIbwS29b)"/><rect width="26.04" height=".473" x="20.98" y="41.433" fill="#d9aeff" clip-path="url(#e0eWcaMCfzLq5GXIbwS29b)"/><rect width="26.04" height=".473" x="20.98" y="41.906" fill="#daaeff" clip-path="url(#e0eWcaMCfzLq5GXIbwS29b)"/><rect width="26.04" height=".473" x="20.98" y="42.379" fill="#dbaeff" clip-path="url(#e0eWcaMCfzLq5GXIbwS29b)"/><rect width="26.04" height=".473" x="20.98" y="42.852" fill="#dcadff" clip-path="url(#e0eWcaMCfzLq5GXIbwS29b)"/><rect width="26.04" height=".473" x="20.98" y="43.325" fill="#ddadff" clip-path="url(#e0eWcaMCfzLq5GXIbwS29b)"/><rect width="26.04" height=".473" x="20.98" y="43.798" fill="#deadff" clip-path="url(#e0eWcaMCfzLq5GXIbwS29b)"/><rect width="26.04" height=".473" x="20.98" y="44.27" fill="#dfadff" clip-path="url(#e0eWcaMCfzLq5GXIbwS29b)"/><rect width="26.04" height=".473" x="20.98" y="44.743" fill="#e0acff" clip-path="url(#e0eWcaMCfzLq5GXIbwS29b)"/><rect width="26.04" height=".473" x="20.98" y="45.216" fill="#e1acff" clip-path="url(#e0eWcaMCfzLq5GXIbwS29b)"/><rect width="26.04" height=".473" x="20.98" y="45.689" fill="#e2acff" clip-path="url(#e0eWcaMCfzLq5GXIbwS29b)"/><rect width="26.04" height=".473" x="20.98" y="46.162" fill="#e3acff" clip-path="url(#e0eWcaMCfzLq5GXIbwS29b)"/><rect width="26.04" height=".473" x="20.98" y="46.635" fill="#e3acff" clip-path="url(#e0eWcaMCfzLq5GXIbwS29b)"/><rect width="26.04" height=".473" x="20.98" y="47.108" fill="#e4abff" clip-path="url(#e0eWcaMCfzLq5GXIbwS29b)"/><rect width="26.04" height=".473" x="20.98" y="47.581" fill="#e5abff" clip-path="url(#e0eWcaMCfzLq5GXIbwS29b)"/><rect width="26.04" height=".473" x="20.98" y="48.053" fill="#e6abff" clip-path="url(#e0eWcaMCfzLq5GXIbwS29b)"/><rect width="26.04" height="5.974" x="20.98" y="48.526" fill="#e6abff" clip-path="url(#e0eWcaMCfzLq5GXIbwS29b)"/><g><path fill="#fff" d="M34,42c-2.664,0-5.013-1.464-5.712-3.561c-0.466-1.398-0.146-2.825,0.876-4.072 c-0.153-0.559-0.229-1.144-0.229-1.728c0-1.567,0.524-3.143,1.444-4.345c-0.007-0.016-0.013-0.031-0.02-0.047 c-0.935-2.257,0.134-5.156,2.933-7.955c0.649-0.649,0.705-1.224,0.834-3.55l0.024-0.425l1.996,0.113l-0.023,0.423 c-0.135,2.422-0.202,3.638-1.417,4.853c-1.848,1.849-2.8,3.691-2.665,5.094C32.919,26.277,33.927,26,35,26 c2.246,0,3.589,1.343,3.589,2.642C38.589,29.729,37.648,31,35,31c-1.297,0-2.457-0.381-3.328-1.053 c-0.473,0.788-0.736,1.74-0.736,2.692c0,0.065,0.001,0.13,0.004,0.195c1.971-1.194,3.835-0.818,4.976-0.005 c1.19,0.846,1.744,2.185,1.378,3.331C37.116,36.714,36.442,38,34,38c-1.691,0-2.932-0.63-3.761-1.581 c-0.185,0.463-0.205,0.933-0.054,1.388C30.609,39.078,32.214,40,34,40V42z M31.553,34.836C32.031,35.523,32.815,36,34,36 c0.86,0,1.316-0.225,1.388-0.447c0.08-0.252-0.138-0.742-0.632-1.093c-0.324-0.231-1.515-0.893-3.156,0.34 C31.584,34.812,31.568,34.824,31.553,34.836z M33.087,28.506C33.589,28.824,34.246,29,35,29c1.157,0,1.552-0.304,1.594-0.386 C36.573,28.514,36.116,28,35,28C34.216,28,33.585,28.211,33.087,28.506z"/></g><g><linearGradient id="e0eWcaMCfzLq5GXIbwS29c" x1="46" x2="46" y1="-3.061" y2="71.179" gradientUnits="userSpaceOnUse"><stop offset="0" stop-color="#1A6DFF"/><stop offset=".695" stop-color="#C822FF"/></linearGradient><polygon fill="url(#e0eWcaMCfzLq5GXIbwS29c)" points="47.707,26.707 46.293,25.293 44.293,27.293 45.707,28.707"/><linearGradient id="e0eWcaMCfzLq5GXIbwS29d" x1="52" x2="52" y1="-3.061" y2="71.179" gradientUnits="userSpaceOnUse"><stop offset="0" stop-color="#1A6DFF"/><stop offset=".695" stop-color="#C822FF"/></linearGradient><rect width="4" height="2" x="50" y="38" fill="url(#e0eWcaMCfzLq5GXIbwS29d)"/><linearGradient id="e0eWcaMCfzLq5GXIbwS29e" x1="48.563" x2="48.563" y1="-3.061" y2="71.179" gradientUnits="userSpaceOnUse"><stop offset="0" stop-color="#1A6DFF"/><stop offset=".695" stop-color="#C822FF"/></linearGradient><polygon fill="url(#e0eWcaMCfzLq5GXIbwS29e)" points="46.488,51.396 49.363,53.771 50.637,52.229 47.762,49.854"/><linearGradient id="e0eWcaMCfzLq5GXIbwS29f" x1="36" x2="36" y1="-3.061" y2="71.179" gradientUnits="userSpaceOnUse"><stop offset="0" stop-color="#1A6DFF"/><stop offset=".695" stop-color="#C822FF"/></linearGradient><rect width="2" height="3.375" x="35" y="58.625" fill="url(#e0eWcaMCfzLq5GXIbwS29f)"/><linearGradient id="e0eWcaMCfzLq5GXIbwS29g" x1="21.938" x2="21.938" y1="-3.061" y2="71.179" gradientUnits="userSpaceOnUse"><stop offset="0" stop-color="#1A6DFF"/><stop offset=".695" stop-color="#C822FF"/></linearGradient><polygon fill="url(#e0eWcaMCfzLq5GXIbwS29g)" points="19.966,56.879 21.534,58.121 23.909,55.121 22.341,53.879"/><linearGradient id="e0eWcaMCfzLq5GXIbwS29h" x1="15.5" x2="15.5" y1="-3.061" y2="71.179" gradientUnits="userSpaceOnUse"><stop offset="0" stop-color="#1A6DFF"/><stop offset=".695" stop-color="#C822FF"/></linearGradient><rect width="5" height="2" x="13" y="40" fill="url(#e0eWcaMCfzLq5GXIbwS29h)"/><linearGradient id="e0eWcaMCfzLq5GXIbwS29i" x1="20.5" x2="20.5" y1="-3.061" y2="71.179" gradientUnits="userSpaceOnUse"><stop offset="0" stop-color="#1A6DFF"/><stop offset=".695" stop-color="#C822FF"/></linearGradient><polygon fill="url(#e0eWcaMCfzLq5GXIbwS29i)" points="22.707,27.293 19.707,24.293 18.293,25.707 21.293,28.707"/><linearGradient id="e0eWcaMCfzLq5GXIbwS29j" x1="34" x2="34" y1="-3.061" y2="71.179" gradientUnits="userSpaceOnUse"><stop offset="0" stop-color="#1A6DFF"/><stop offset=".695" stop-color="#C822FF"/></linearGradient><path fill="url(#e0eWcaMCfzLq5GXIbwS29j)" d="M45.186,32.258 c-2.816-3.849-4.306-8.295-4.306-12.86V15.38H38.5V14.5h1v-2h-1V11H39l0.991-0.009L40,10c0,0,0.002-0.253-0.053-0.659 c-0.007-0.107-0.023-0.183-0.027-0.188c-0.049-0.354-0.144-0.762-0.284-1.209l-0.044-0.102c-0.015-0.06-0.033-0.114-0.055-0.17 l-0.02-0.051c-0.082-0.222-0.186-0.444-0.312-0.697c-0.031-0.061-0.064-0.12-0.104-0.181c-0.27-0.486-0.621-0.93-1.049-1.323 c-0.144-0.13-0.299-0.259-0.457-0.367C37.374,4.896,37.162,4.768,37,4.688V3h-6v1.688c-0.233,0.122-0.433,0.246-0.579,0.359 c-0.166,0.115-0.333,0.244-0.478,0.376c-0.425,0.391-0.777,0.835-1.047,1.321c-0.039,0.062-0.074,0.125-0.112,0.199 c-0.116,0.233-0.22,0.456-0.302,0.678l-0.127,0.349C28.224,8.392,28.129,8.8,28.091,9.09c-0.013,0.056-0.031,0.141-0.038,0.25 C27.998,9.747,28,10,28,10l0.009,1H29.5v1.5H29v2h0.5v0.88h-1.799l-0.25,0.63c-0.087,0.218-0.127,0.317-0.132,3.141 c-0.01,4.597-1.555,9.11-4.467,13.053C20.974,34.746,19.98,37.788,19.98,41c0,7.995,6.289,14.5,14.02,14.5S48.02,48.995,48.02,41 C48.02,37.814,47.04,34.792,45.186,32.258z M30.377,8.268c0.055-0.141,0.121-0.279,0.171-0.395l0.082-0.129 c0.167-0.31,0.392-0.595,0.664-0.845c0.079-0.072,0.172-0.143,0.304-0.234c0.12-0.093,0.256-0.169,0.447-0.266 c0.095-0.054,0.196-0.092,0.304-0.132L33,6.025V5h2v1.025l0.651,0.242c0.107,0.04,0.209,0.078,0.37,0.166 c0.155,0.074,0.295,0.164,0.432,0.261c0.093,0.063,0.176,0.134,0.25,0.202c0.275,0.253,0.5,0.538,0.667,0.848l0.055,0.091 c0.078,0.156,0.149,0.306,0.207,0.453c0.014,0.043,0.027,0.079,0.038,0.104L37.711,8.5h-7.421l0.062-0.183 c-0.008,0.031-0.017,0.061-0.026,0.087L30.377,8.268z M31.5,11h5v1.5h-5V11z M31.5,14.5h5v0.88h-5V14.5z M34,53.5 c-6.628,0-12.02-5.607-12.02-12.5c0-2.78,0.858-5.412,2.481-7.609c3.167-4.287,4.847-9.21,4.857-14.236 c0.002-0.824,0.007-1.388,0.014-1.774h9.547v2.018c0,4.993,1.622,9.849,4.692,14.042c1.601,2.188,2.447,4.803,2.447,7.561 C46.02,47.893,40.628,53.5,34,53.5z"/></g></svg>